<?xml version="1.0" encoding="UTF-8" standalone="no"?>
<svg
   id="svg4306"
   width="22"
   height="22"
   version="1.1"
   style="enable-background:new"
   sodipodi:docname="maximize.svg"
   inkscape:version="1.4 (e7c3feb100, 2024-10-09)"
   xmlns:inkscape="http://www.inkscape.org/namespaces/inkscape"
   xmlns:sodipodi="http://sodipodi.sourceforge.net/DTD/sodipodi-0.dtd"
   xmlns="http://www.w3.org/2000/svg"
   xmlns:svg="http://www.w3.org/2000/svg"
   xmlns:rdf="http://www.w3.org/1999/02/22-rdf-syntax-ns#"
   xmlns:cc="http://creativecommons.org/ns#"
   xmlns:dc="http://purl.org/dc/elements/1.1/">
  <metadata
     id="metadata28">
    <rdf:RDF>
      <cc:Work
         rdf:about="">
        <dc:format>image/svg+xml</dc:format>
        <dc:type
           rdf:resource="http://purl.org/dc/dcmitype/StillImage" />
      </cc:Work>
    </rdf:RDF>
  </metadata>
  <defs
     id="defs26" />
  <sodipodi:namedview
     inkscape:document-rotation="0"
     pagecolor="#2e3238"
     bordercolor="#000000"
     borderopacity="1"
     objecttolerance="10"
     gridtolerance="10"
     guidetolerance="10"
     inkscape:pageopacity="1"
     inkscape:pageshadow="2"
     inkscape:window-width="1920"
     inkscape:window-height="1000"
     id="namedview24"
     showgrid="true"
     inkscape:zoom="4"
     inkscape:cx="-98.375"
     inkscape:cy="43.75"
     inkscape:window-x="0"
     inkscape:window-y="0"
     inkscape:window-maximized="1"
     inkscape:current-layer="svg4306"
     inkscape:snap-bbox="true"
     inkscape:bbox-nodes="true"
     inkscape:lockguides="true"
     inkscape:pagecheckerboard="true"
     inkscape:showpageshadow="2"
     inkscape:deskcolor="#2e3238">
    <inkscape:grid
       type="xygrid"
       id="grid853"
       originx="-44"
       originy="0"
       spacingy="1"
       spacingx="1"
       units="px"
       visible="true" />
  </sodipodi:namedview>
  <style
     type="text/css"
     id="current-color-scheme" />
  <g
     id="active-center"
     transform="translate(-44)">
    <rect
       id="rect4266"
       width="22"
       height="22"
       x="0"
       y="0"
       style="opacity:0.00100002;fill:#000000;fill-opacity:1;fill-rule:nonzero;stroke:none;stroke-width:2;stroke-linecap:round;stroke-linejoin:round;stroke-miterlimit:4;stroke-dasharray:none;stroke-opacity:1" />
    <path
       id="path839-3"
       style="fill:#2b4254;fill-opacity:1;stroke-width:1.125;enable-background:new"
       d="M 11.000001,2 C 6.02953,2 2,6.029441 2,10.999998 2,15.970557 6.02953,20 11.000001,20 c 4.97048,0 9,-4.029443 9,-9.000002 0,-4.970557 -4.02952,-8.999998 -9,-8.999998 z m 0,1.125 c 4.34919,0 7.875,3.525746 7.875,7.874998 0,4.349234 -3.52581,7.875002 -7.875,7.875002 C 6.6508,18.875 3.125,15.349232 3.125,10.999998 3.125,6.650746 6.6508,3.125 11.000001,3.125 Z m 0,0 z"
       sodipodi:nodetypes="ssssssssssccccc" />
    <rect
       style="fill:#a3be8c;fill-opacity:1;stroke:none;stroke-width:0.39374;enable-background:new"
       id="center-3-35-5"
       width="15.749992"
       height="15.749992"
       x="3.1250017"
       y="3.1250014"
       ry="7.8749838"
       rx="7.8749962" />
  </g>
  <g
     id="inactive-center"
     transform="translate(-44,22)">
    <rect
       style="opacity:0.00100002;fill:#000000;fill-opacity:1;fill-rule:nonzero;stroke:none;stroke-width:2;stroke-linecap:round;stroke-linejoin:round;stroke-miterlimit:4;stroke-dasharray:none;stroke-opacity:1"
       y="0"
       x="0"
       height="22"
       width="22"
       id="rect4266-9" />
    <path
       id="path839-3-5"
       style="fill:#2b4254;fill-opacity:1;stroke-width:1.125;enable-background:new"
       d="M 11.000001,2 C 6.02953,2 2,6.029441 2,10.999998 2,15.970557 6.02953,20 11.000001,20 c 4.97048,0 9,-4.029443 9,-9.000002 0,-4.970557 -4.02952,-8.999998 -9,-8.999998 z m 0,1.125 c 4.34919,0 7.875,3.525746 7.875,7.874998 0,4.349234 -3.52581,7.875002 -7.875,7.875002 C 6.6508,18.875 3.125,15.349232 3.125,10.999998 3.125,6.650746 6.6508,3.125 11.000001,3.125 Z m 0,0 z"
       sodipodi:nodetypes="ssssssssssccccc" />
    <rect
       style="fill:#a3be8c;fill-opacity:0.6;stroke:none;stroke-width:0.39374;enable-background:new"
       id="center-3-35-5-6"
       width="15.749992"
       height="15.749992"
       x="3.124999"
       y="3.1250017"
       ry="7.8749838"
       rx="7.8749962" />
  </g>
  <g
     id="hover-center"
     transform="translate(0,22)">
    <rect
       style="opacity:0.00100002;fill:#000000;fill-opacity:1;fill-rule:nonzero;stroke:none;stroke-width:2;stroke-linecap:round;stroke-linejoin:round;stroke-miterlimit:4;stroke-dasharray:none;stroke-opacity:1"
       y="-22"
       x="-22"
       height="22"
       width="22"
       id="rect4266-3" />
    <path
       id="path839-3-6"
       style="fill:#2b4254;fill-opacity:1;stroke-width:1.125;enable-background:new"
       d="m -11,-20 c -4.970471,0 -9.000001,4.029441 -9.000001,8.999998 0,4.970559 4.02953,9.000002 9.000001,9.000002 4.97048,0 9,-4.029443 9,-9.000002 C -2,-15.970559 -6.02952,-20 -11,-20 Z m 0,1.125 c 4.34919,0 7.875,3.525746 7.875,7.874998 0,4.349234 -3.52581,7.875002 -7.875,7.875002 -4.349201,0 -7.875001,-3.525768 -7.875001,-7.875002 0,-4.349252 3.5258,-7.874998 7.875001,-7.874998 z m 0,0 z"
       sodipodi:nodetypes="ssssssssssccccc" />
    <rect
       style="fill:#a3be8c;fill-opacity:0.7;stroke:none;stroke-width:0.39374;enable-background:new"
       id="center-3-35-5-7"
       width="15.749992"
       height="15.749992"
       x="-18.875"
       y="-18.874998"
       ry="7.8749838"
       rx="7.8749962" />
    <path
       d="m -13.357422,7.5 c -1.178613,0.014788 -2.357422,0.9324825 -2.357422,2.648438 0,2.058928 2.755125,4.466212 4.714844,5.597656 1.959719,-1.131444 4.7148438,-3.538728 4.7148438,-5.597656 C -6.2851562,6.7165273 -11,6.4755557 -11,10.273438 -11,8.3744967 -12.178808,7.4852115 -13.357422,7.5 Z"
       style="enable-background:new;fill:#e2eadb;stroke:#e2eadb;stroke-linecap:round;stroke-linejoin:round;opacity:1;fill-opacity:1;stroke-opacity:1"
       id="path4"
       transform="translate(0,-22)" />
  </g>
  <g
     id="pressed-center"
     transform="translate(0,22)">
    <rect
       id="rect4266-3-6"
       width="22"
       height="22"
       x="0"
       y="-22"
       style="opacity:0.00100002;fill:#000000;fill-opacity:1;fill-rule:nonzero;stroke:none;stroke-width:2;stroke-linecap:round;stroke-linejoin:round;stroke-miterlimit:4;stroke-dasharray:none;stroke-opacity:1" />
    <path
       id="path839-3-3"
       style="fill:#2b4254;fill-opacity:1;stroke-width:1.125;enable-background:new"
       d="M 11.000001,-20 C 6.02953,-20 2,-15.970559 2,-11.000002 2,-6.029443 6.02953,-2 11.000001,-2 c 4.97048,0 9,-4.029443 9,-9.000002 0,-4.970557 -4.02952,-8.999998 -9,-8.999998 z m 0,1.125 c 4.34919,0 7.875,3.525746 7.875,7.874998 0,4.349234 -3.52581,7.875002 -7.875,7.875002 C 6.6508,-3.125 3.125,-6.650768 3.125,-11.000002 c 0,-4.349252 3.5258,-7.874998 7.875001,-7.874998 z m 0,0 z"
       sodipodi:nodetypes="ssssssssssccccc" />
    <rect
       style="fill:#a3be8c;fill-opacity:1;stroke:none;stroke-width:0.39374;enable-background:new"
       id="center-3-35-5-5"
       width="15.749992"
       height="15.749992"
       x="3.125"
       y="-18.874998"
       ry="7.8749838"
       rx="7.8749962" />
    <path
       d="M 8.647422,-14.499595 C 7.468809,-14.484805 6.29,-13.567112 6.29,-11.851157 c 0,2.0589285 2.755125,4.4662125 4.714844,5.5976565 1.959719,-1.131444 4.714844,-3.538728 4.714844,-5.5976565 0,-3.431911 -4.714844,-3.672882 -4.714844,0.125 0,-1.898941 -1.178808,-2.788226 -2.357422,-2.773438 z"
       style="fill:#e2eadb;fill-opacity:1;stroke:#e2eadb;stroke-linecap:round;stroke-linejoin:round;stroke-opacity:1;enable-background:new"
       id="path4-3" />
  </g>
  <g
     id="pressed-inactive-center"
     transform="translate(0,22)">
    <rect
       style="opacity:0.00100002;fill:#000000;fill-opacity:1;fill-rule:nonzero;stroke:none;stroke-width:2;stroke-linecap:round;stroke-linejoin:round;stroke-miterlimit:4;stroke-dasharray:none;stroke-opacity:1"
       y="0"
       x="0"
       height="22"
       width="22"
       id="rect4266-3-6-5" />
    <path
       id="path839-3-9"
       style="fill:#2b4254;fill-opacity:1;stroke-width:1.125;enable-background:new"
       d="M 11.000001,2 C 6.02953,2 2,6.029441 2,10.999998 2,15.970557 6.02953,20 11.000001,20 c 4.97048,0 9,-4.029443 9,-9.000002 0,-4.970557 -4.02952,-8.999998 -9,-8.999998 z m 0,1.125 c 4.34919,0 7.875,3.525746 7.875,7.874998 0,4.349234 -3.52581,7.875002 -7.875,7.875002 C 6.6508,18.875 3.125,15.349232 3.125,10.999998 3.125,6.650746 6.6508,3.125 11.000001,3.125 Z m 0,0 z"
       sodipodi:nodetypes="ssssssssssccccc" />
    <rect
       style="fill:#a3be8c;fill-opacity:1;stroke:none;stroke-width:0.39374;enable-background:new"
       id="center-3-35-5-1"
       width="15.749992"
       height="15.749992"
       x="3.1250041"
       y="3.1249998"
       ry="7.8749838"
       rx="7.8749962" />
    <path
       d="M 8.642422,7.5004055 C 7.463809,7.5151955 6.285,8.4328885 6.285,10.148843 c 0,2.058929 2.755125,4.466213 4.714844,5.597657 1.959719,-1.131444 4.714844,-3.538728 4.714844,-5.597657 0,-3.4319105 -4.714844,-3.6728815 -4.714844,0.125 0,-1.8989405 -1.178808,-2.7882255 -2.357422,-2.7734375 z"
       style="fill:#e2eadb;fill-opacity:1;stroke:#e2eadb;stroke-linecap:round;stroke-linejoin:round;stroke-opacity:1;enable-background:new"
       id="path4-3-6" />
  </g>
  <g
     id="hover-inactive-center"
     transform="translate(-22,22)">
    <rect
       id="rect4266-3-67"
       width="22"
       height="22"
       x="0"
       y="0"
       style="opacity:0.00100002;fill:#000000;fill-opacity:1;fill-rule:nonzero;stroke:none;stroke-width:2;stroke-linecap:round;stroke-linejoin:round;stroke-miterlimit:4;stroke-dasharray:none;stroke-opacity:1" />
    <path
       id="path839-3-36"
       style="fill:#2b4254;fill-opacity:1;stroke-width:1.125;enable-background:new"
       d="M 11.000001,2 C 6.02953,2 2,6.029441 2,10.999998 2,15.970557 6.02953,20 11.000001,20 15.97048,20 20,15.970557 20,10.999998 20,6.029441 15.970481,2 11.000001,2 Z m 0,1.125 c 4.34919,0 7.874999,3.525746 7.874999,7.874998 0,4.349234 -3.525809,7.875002 -7.874999,7.875002 C 6.6508,18.875 3.125,15.349232 3.125,10.999998 3.125,6.650746 6.6508,3.125 11.000001,3.125 Z m 0,0 z"
       sodipodi:nodetypes="ssssssssssccccc" />
    <rect
       style="fill:#a3be8c;fill-opacity:0.7;stroke:none;stroke-width:0.39374;enable-background:new"
       id="center-3-35-5-75"
       width="15.749992"
       height="15.749992"
       x="3.1250002"
       y="3.125"
       ry="7.8749838"
       rx="7.8749962" />
    <path
       d="M 8.642422,7.5004054 C 7.463809,7.5151934 6.285,8.4328879 6.285,10.148844 c 0,2.058928 2.755125,4.466212 4.714844,5.597656 1.959719,-1.131444 4.714844,-3.538728 4.714844,-5.597656 0,-3.4319113 -4.714844,-3.6728829 -4.714844,0.125 0,-1.8989419 -1.178808,-2.7882271 -2.357422,-2.7734386 z"
       style="fill:#e2eadb;fill-opacity:1;stroke:#e2eadb;stroke-linecap:round;stroke-linejoin:round;stroke-opacity:1;enable-background:new"
       id="path4-6" />
  </g>
</svg>
